<svg id="Capa_1" enable-background="new 0 0 512 512" height="512" viewBox="0 0 512 512" width="512" xmlns="http://www.w3.org/2000/svg" xmlns:xlink="http://www.w3.org/1999/xlink"><linearGradient id="SVGID_1_" gradientUnits="userSpaceOnUse" x1="74.98" x2="437.018" y1="437.018" y2="74.979"><stop offset="0" stop-color="#ff2f2b"/><stop offset="1" stop-color="#ff9ceb"/></linearGradient><radialGradient id="SVGID_2_" cx="259.042" cy="321.407" gradientUnits="userSpaceOnUse" r="339.227"><stop offset="0" stop-color="#ff2f2b" stop-opacity=".5"/><stop offset=".2537" stop-color="#ff4858" stop-opacity=".373"/><stop offset=".8253" stop-color="#ff88c8" stop-opacity=".087"/><stop offset="1" stop-color="#ff9ceb" stop-opacity="0"/></radialGradient><linearGradient id="lg1"><stop offset="0" stop-color="#ffb5d6"/><stop offset=".4183" stop-color="#ffdbeb"/><stop offset=".7836" stop-color="#fff5fa"/><stop offset="1" stop-color="#fff"/></linearGradient><linearGradient id="SVGID_3_" gradientUnits="userSpaceOnUse" x1="-55.02" x2="346.564" xlink:href="#lg1" y1="711.521" y2="309.936"/><linearGradient id="SVGID_4_" gradientUnits="userSpaceOnUse" x1="127.029" x2="448.481" xlink:href="#lg1" y1="403.979" y2="82.527"/><linearGradient id="lg2"><stop offset="0" stop-color="#ff79b1"/><stop offset="1" stop-color="#ffe3f3"/></linearGradient><linearGradient id="SVGID_5_" gradientUnits="userSpaceOnUse" x1="65.212" x2="533.666" xlink:href="#lg2" y1="489.943" y2="21.488"/><linearGradient id="SVGID_6_" gradientUnits="userSpaceOnUse" x1="145.71" x2="517.644" xlink:href="#lg2" y1="392.697" y2="20.763"/><linearGradient id="SVGID_7_" gradientUnits="userSpaceOnUse" x1="3.535" x2="469.35" xlink:href="#lg2" y1="445.318" y2="-20.498"/><linearGradient id="SVGID_8_" gradientUnits="userSpaceOnUse" x1="76.077" x2="444.709" xlink:href="#lg2" y1="356.034" y2="-12.598"/><linearGradient id="SVGID_9_" gradientUnits="userSpaceOnUse" x1="-28.702" x2="501.312" xlink:href="#lg1" y1="394.121" y2="-135.893"/><linearGradient id="SVGID_10_" gradientUnits="userSpaceOnUse" x1="210.041" x2="532.268" xlink:href="#lg1" y1="427.336" y2="105.109"/><linearGradient id="SVGID_11_" gradientUnits="userSpaceOnUse" x1="69.823" x2="649.301" xlink:href="#lg2" y1="560.314" y2="-19.164"/><linearGradient id="SVGID_12_" gradientUnits="userSpaceOnUse" x1="178.341" x2="639.32" xlink:href="#lg2" y1="435.027" y2="-25.952"/><g><circle cx="256" cy="256" fill="url(#SVGID_1_)" r="256"/><circle cx="256" cy="256" fill="url(#SVGID_2_)" r="256"/><path d="m399.838 384.897c-95.892 3.718-191.784 3.718-287.676 0-4.182-.161-7.446 3.058-7.278 7.198.239 5.937.494 11.873.765 17.81.191 4.14 3.71 7.674 7.851 7.881 4.14.207 7.353-3.011 7.184-7.174-.141-3.453-.278-6.906-.409-10.359 18.851.78 37.701 1.397 56.552 1.852.077 3.499.156 6.998.239 10.497.102 4.217 3.544 7.727 7.684 7.831 4.139.104 7.429-3.251 7.351-7.478-.067-3.507-.131-7.014-.193-10.521 18.851.369 37.702.574 56.552.617.008 3.522.015 7.044.023 10.567.011 4.245 3.377 7.697 7.518 7.697 4.14-.001 7.507-3.451 7.518-7.697.008-3.522.015-7.044.023-10.567 18.85-.043 37.701-.249 56.552-.617-.062 3.507-.126 7.014-.193 10.521-.079 4.229 3.21 7.581 7.351 7.478s7.58-3.615 7.684-7.831c.082-3.499.162-6.998.239-10.497 18.851-.455 37.701-1.072 56.552-1.852-.132 3.453-.268 6.906-.409 10.359-.168 4.164 3.044 7.382 7.184 7.174 4.139-.208 7.659-3.741 7.851-7.881.271-5.937.526-11.873.764-17.81.168-4.139-3.097-7.357-7.279-7.198z" fill="url(#SVGID_3_)"/><path d="m248.323 223.687c-10.236.006-20.473.024-30.709.054-4.24.012-7.687 3.461-7.7 7.696-.115 44.319.029 88.639.432 132.958.04 4.236 3.474 7.706 7.669 7.745 10.13.091 20.259.145 30.388.163 4.194.007 7.597-3.434 7.597-7.681 10.145-22.208 20.425-44.45 30.71-66.661-10.189-22.163-20.468-44.381-30.71-66.589-.002-4.244-3.439-7.689-7.677-7.685z" fill="url(#SVGID_4_)"/><path d="m294.081 162.336c-5.077-.04-10.155-.072-15.232-.096.303 70.003.284 140.007-.058 210.01 5.065-.027 10.13-.063 15.194-.109 4.195-.037 7.63-3.51 7.669-7.745.589-64.774.625-129.549.106-194.323-.033-4.236-3.475-7.704-7.679-7.737z" fill="url(#SVGID_5_)"/><path d="m286.436 364.521c.392-64.853.416-129.706.071-194.56-.022-4.241-3.454-7.703-7.659-7.722-5.078-.024-10.155-.04-15.233-.048-4.204-.007-7.615 3.436-7.616 7.682v194.75c.001 4.247 3.403 7.688 7.597 7.681 5.064-.009 10.129-.027 15.194-.054 4.195-.022 7.62-3.487 7.646-7.729z" fill="url(#SVGID_6_)"/><path d="m187.453 162.673c-5.077.072-10.155.153-15.233.241-1.111 69.525-1.041 139.05.211 208.575 5.065.1 10.129.19 15.194.271 4.194.069 7.552-3.311 7.501-7.542-.785-64.663-.833-129.327-.142-193.99.044-4.231-3.326-7.616-7.531-7.555z" fill="url(#SVGID_7_)"/><path d="m179.908 363.991c-.982-64.521-1.041-129.042-.177-193.562.055-4.221-3.306-7.59-7.51-7.514-5.077.089-10.155.185-15.232.289-4.205.086-7.685 3.566-7.765 7.759-10.774 32.278-21.397 64.364-31.593 96.162 10.303 31.835 21.009 63.954 31.842 96.26.091 4.194 3.571 7.678 7.766 7.779 5.065.118 10.13.227 15.194.326 4.194.08 7.537-3.276 7.475-7.499z" fill="url(#SVGID_8_)"/><path d="m143.5 102.884c-10 .391-20 .834-30 1.329-4.139.207-7.661 3.743-7.851 7.881-3.804 83.333-4.415 166.667-1.832 250 .13 4.138 3.645 7.622 7.838 7.765 10.13.344 20.259.652 30.389.923 4.193.115 7.516-3.203 7.428-7.399-1.808-84.396-1.381-168.792 1.282-253.188.13-4.194-3.114-7.474-7.254-7.311z" fill="url(#SVGID_9_)"/><path d="m355.805 224.07c-10.237-.079-20.473-.145-30.709-.2-4.24-.023-7.661 3.389-7.647 7.619.154 44.243-.038 88.487-.575 132.73-.049 4.23 3.307 7.61 7.501 7.542 10.13-.163 20.259-.362 30.388-.598 4.195-.101 7.675-3.585 7.766-7.779 10.616-22.179 21.215-44.24 31.667-66.117-10.021-21.661-20.284-43.53-30.66-65.54-.028-4.194-3.492-7.624-7.731-7.657z" fill="url(#SVGID_10_)"/><path d="m398.5 104.214c-5-.248-10-.482-15-.704 3.6 88.946 4.151 177.892 1.651 266.838 5.064-.154 10.129-.317 15.194-.489 4.196-.143 7.708-3.625 7.838-7.765 2.583-83.333 1.972-166.667-1.832-250-.189-4.139-3.711-7.671-7.851-7.88z" fill="url(#SVGID_11_)"/><path d="m392.965 362.575c2.324-83.729 1.775-167.458-1.649-251.188-.172-4.16-3.675-7.692-7.816-7.878-5-.221-10-.43-15-.626-4.14-.164-7.385 3.117-7.254 7.312 2.663 84.396 3.09 168.792 1.282 253.188-.089 4.193 3.235 7.515 7.428 7.399 5.065-.136 10.13-.28 15.194-.434 4.196-.129 7.697-3.615 7.815-7.773z" fill="url(#SVGID_12_)"/></g></svg>