<svg id="Capa_1" enable-background="new 0 0 512 512" height="512" viewBox="0 0 512 512" width="512" xmlns="http://www.w3.org/2000/svg" xmlns:xlink="http://www.w3.org/1999/xlink"><linearGradient id="SVGID_1_" gradientUnits="userSpaceOnUse" x1="74.981" x2="437.02" y1="437.019" y2="74.98"><stop offset="0" stop-color="#230be0"/><stop offset="1" stop-color="#fc54ff"/></linearGradient><radialGradient id="SVGID_2_" cx="256.001" cy="256" gradientUnits="userSpaceOnUse" r="256"><stop offset="0" stop-color="#8d00db" stop-opacity=".8"/><stop offset="1" stop-color="#fc54ff" stop-opacity="0"/></radialGradient><linearGradient id="lg1"><stop offset="0" stop-color="#fc54ff"/><stop offset=".2201" stop-color="#fd75ff"/><stop offset=".7016" stop-color="#fec8ff"/><stop offset="1" stop-color="#fff"/></linearGradient><linearGradient id="SVGID_3_" gradientUnits="userSpaceOnUse" x1="16.164" x2="688.833" xlink:href="#lg1" y1="368.053" y2="-304.616"/><linearGradient id="SVGID_4_" gradientUnits="userSpaceOnUse" x1="104.382" x2="449.536" xlink:href="#lg1" y1="329.601" y2="-15.553"/><linearGradient id="SVGID_5_" gradientUnits="userSpaceOnUse" x1="149.729" x2="487.113" xlink:href="#lg1" y1="219.409" y2="-117.974"/><linearGradient id="SVGID_6_" gradientUnits="userSpaceOnUse" x1="214.112" x2="445.673" xlink:href="#lg1" y1="195.139" y2="-36.423"/><radialGradient id="SVGID_7_" cx="257.85" cy="287.303" gradientUnits="userSpaceOnUse" r="201.859"><stop offset="0" stop-color="#8d00db" stop-opacity=".8"/><stop offset=".0866" stop-color="#9707de" stop-opacity=".731"/><stop offset="1" stop-color="#fc54ff" stop-opacity="0"/></radialGradient><linearGradient id="SVGID_8_" gradientUnits="userSpaceOnUse" x1="175.729" x2="406.209" xlink:href="#lg1" y1="386.124" y2="155.644"/><linearGradient id="SVGID_9_" gradientTransform="matrix(1 0 0 -1 0 412)" gradientUnits="userSpaceOnUse" x1="138.935" x2="486.441" xlink:href="#lg1" y1="-84.419" y2="263.087"/><linearGradient id="SVGID_10_" gradientUnits="userSpaceOnUse" x1="31.194" x2="535.003" xlink:href="#lg1" y1="521.366" y2="17.557"/><linearGradient id="SVGID_11_" gradientUnits="userSpaceOnUse" x1="44.709" x2="554.14" xlink:href="#lg1" y1="632.115" y2="122.684"/><linearGradient id="SVGID_12_" gradientUnits="userSpaceOnUse" x1="-1029.091" x2="501.976" xlink:href="#lg1" y1="1541.091" y2="10.024"/><g><circle cx="256" cy="256" fill="url(#SVGID_1_)" r="256"/><circle cx="256" cy="256" fill="url(#SVGID_2_)" r="256"/><path d="m256 146.758c-39.23 0-78.459.363-117.689 1.089 25.971 21.12 52.233 42.693 78.605 64.428 10.605 8.739 24.23 14 39.084 14 0-26.506 0-53.011 0-79.517z" fill="url(#SVGID_3_)"/><path d="m199.421 147.01c12.485 21.66 25.111 43.426 37.789 65.229 5.098 8.767 11.648 14.036 18.79 14.036 14.855 0 28.479-5.26 39.084-14 .15-.227 78.81-64.747 78.605-64.428-58.089-1.075-116.178-1.354-174.268-.837z" fill="url(#SVGID_4_)"/><path d="m256 41.775c-74.323.075-135.82 33.725-136.828 71.161-.927 37.502 60.569 67.072 136.828 67.214 76.259-.141 137.755-29.71 136.828-67.214-1.008-37.435-62.505-71.086-136.828-71.161z" fill="url(#SVGID_5_)"/><path d="m256 180.15c43.576-.003 82.407-9.83 107.436-25.112-11.335-24.655-55.276-44.07-107.436-44.075-52.16.005-96.101 19.42-107.436 44.075 25.029 15.283 63.86 25.109 107.436 25.112z" fill="url(#SVGID_6_)"/><path d="m392.828 112.936c.928 37.503-60.57 67.073-136.828 67.214-76.259-.141-137.756-29.71-136.828-67.214 1.008-37.434 62.505-71.086 136.828-71.161 74.323.075 135.82 33.725 136.828 71.161z" fill="url(#SVGID_7_)"/><path d="m216.916 299.725c-26.372 21.735-52.634 43.309-78.605 64.428 39.23.726 78.459 1.089 117.689 1.089 0-26.505 0-53.012 0-79.517-14.855 0-28.479 5.259-39.084 14z" fill="url(#SVGID_8_)"/><path d="m295.084 299.725c-10.605-8.74-24.229-14-39.084-14-8.253-.001-15.822 5.268-21.713 14.033-14.651 21.796-29.241 43.542-43.67 65.148 61.024.627 122.048.376 183.072-.753.206.32-78.455-64.2-78.605-64.428z" fill="url(#SVGID_9_)"/><path d="m119.172 399.063c.392 17.898 14.655 34.702 37.362 47.611 17.36-36.653 35.372-73.745 53.662-111.031-53.648 9.261-91.721 33.753-91.024 63.42z" fill="url(#SVGID_10_)"/><path d="m256 331.85c-16.064.001-31.481 1.342-45.804 3.794-20.073 29.948-39.924 59.708-59.29 89.041-4.811 7.281-2.194 17.477 5.628 21.99 25.078 14.225 60.377 23.567 99.466 23.55 74.323-.074 135.82-33.725 136.828-71.161.927-37.504-60.569-67.074-136.828-67.214z" fill="url(#SVGID_11_)"/><path d="m436.076 320.906c-53.062-20.724-106.517-42.764-159.988-64.906 53.471-22.142 106.925-44.182 159.988-64.906 3.893-1.521 5.689-5.87 4.01-9.729-1.679-3.86-6.19-5.776-10.074-4.266-57.643 22.421-115.809 46.471-174.012 70.58-58.203-24.109-116.369-48.159-174.013-70.58-3.884-1.511-8.394.407-10.074 4.266s.116 8.208 4.01 9.729c53.063 20.724 106.518 42.764 159.988 64.906-53.47 22.142-106.925 44.182-159.988 64.906-3.893 1.522-5.689 5.869-4.01 9.729 1.68 3.857 6.19 5.777 10.074 4.266 57.644-22.422 115.81-46.471 174.013-70.58 58.203 24.109 116.369 48.159 174.013 70.581 3.884 1.511 8.394-.407 10.074-4.266 1.679-3.861-.117-8.208-4.011-9.73z" fill="url(#SVGID_12_)"/></g></svg>